<?xml version="1.0" standalone="no"?>
<!DOCTYPE svg PUBLIC "-//W3C//DTD SVG 20010904//EN"
 "http://www.w3.org/TR/2001/REC-SVG-20010904/DTD/svg10.dtd">
<svg version="1.0" xmlns="http://www.w3.org/2000/svg"
 width="700.000000pt" height="700.000000pt" viewBox="0 0 700.000000 700.000000"
 preserveAspectRatio="xMidYMid meet">
<metadata>
Created by potrace 1.11, written by Peter Selinger 2001-2013
</metadata>
<g transform="translate(0.000000,700.000000) scale(0.100000,-0.100000)"
fill="#000000" stroke="none">
<path d="M2824 6986 c-17 -8 -43 -29 -57 -47 -23 -31 -28 -46 -42 -119 -3 -14
-11 -50 -18 -80 l-12 -55 -581 -1 c-512 -1 -589 -3 -660 -19 -202 -44 -383
-177 -481 -352 -36 -66 -78 -186 -87 -253 -8 -57 -8 -5369 0 -5430 31 -242
198 -464 427 -569 133 -60 -31 -56 2157 -58 2166 -3 2064 -5 2201 52 213 90
369 271 429 499 18 69 19 160 17 2806 l-2 2735 -23 70 c-29 84 -63 152 -116
224 -110 152 -279 253 -483 287 -21 4 -292 8 -603 9 -311 1 -570 2 -576 3 -6
1 -17 30 -23 65 -29 153 -52 201 -112 233 -39 20 -1309 20 -1355 0z m-238
-793 c-4 -9 -12 -46 -18 -82 -10 -59 -9 -71 9 -112 16 -36 30 -51 65 -68 45
-21 45 -21 859 -21 793 1 815 1 855 21 29 14 49 33 65 64 22 41 23 48 11 113
-6 38 -14 76 -18 86 -6 15 30 16 507 16 383 -1 523 -4 550 -13 62 -21 115 -65
145 -120 l29 -52 2 -2665 c2 -2586 2 -2667 -17 -2720 -24 -70 -88 -133 -156
-153 -42 -12 -330 -14 -1989 -13 -1832 2 -1942 3 -1980 19 -50 22 -100 70
-128 122 l-22 40 0 2685 0 2685 21 40 c30 56 71 94 129 121 l50 24 519 0 c479
0 518 -1 512 -17z"/>
<path d="M2472 5447 c-50 -19 -98 -62 -121 -110 -20 -42 -21 -56 -21 -511 0
-440 1 -469 19 -504 27 -52 57 -82 107 -103 39 -18 71 -19 346 -20 167 0 320
0 341 0 l38 1 -91 62 c-50 34 -110 81 -132 104 -179 188 -176 473 7 660 150
153 377 182 573 73 l52 -29 0 95 c0 122 -14 177 -55 220 -71 73 -48 70 -565
72 -342 1 -474 -1 -498 -10z"/>
<path d="M4630 5420 c-56 -10 -97 -37 -183 -118 -44 -42 -98 -94 -121 -116
-138 -130 -394 -373 -484 -459 l-72 -70 -103 69 c-56 38 -104 71 -107 74 -20
21 -161 106 -194 118 -48 16 -129 11 -173 -11 -37 -19 -90 -73 -111 -112 -11
-20 -17 -55 -17 -101 0 -101 30 -146 155 -233 262 -183 470 -319 504 -331 46
-15 131 -8 175 14 18 10 69 52 114 95 45 44 98 93 117 111 41 38 315 297 375
355 23 22 113 107 199 189 90 85 166 167 179 190 15 30 21 59 21 107 0 56 -4
74 -29 115 -33 52 -94 102 -135 109 -61 10 -77 11 -110 5z"/>
<path d="M2480 3824 c-60 -18 -100 -53 -126 -108 l-24 -51 0 -462 c0 -338 3
-470 12 -490 22 -52 49 -83 96 -110 l47 -28 343 0 c188 -1 342 2 342 5 -1 3
-35 29 -78 57 -151 103 -208 171 -246 298 -35 113 -25 228 29 340 117 244 414
337 652 204 29 -16 55 -29 58 -29 3 0 5 48 5 108 0 118 -14 165 -64 214 -63
62 -57 62 -555 62 -307 1 -466 -3 -491 -10z"/>
<path d="M4594 3787 c-42 -17 -70 -37 -139 -102 -237 -224 -373 -352 -455
-431 -180 -171 -227 -214 -233 -214 -3 0 -89 56 -191 124 -101 69 -199 129
-217 134 -114 30 -249 -43 -287 -155 -15 -47 -8 -132 15 -178 28 -52 56 -77
188 -167 61 -41 170 -116 244 -167 177 -122 203 -134 273 -134 74 1 126 27
208 105 36 34 134 127 219 207 167 159 165 157 366 346 279 264 293 279 311
342 14 48 15 67 6 112 -13 63 -60 129 -114 160 -46 26 -148 36 -194 18z"/>
<path d="M2466 2195 c-49 -17 -93 -59 -117 -110 -17 -37 -19 -73 -19 -505 0
-432 2 -468 19 -505 10 -22 31 -52 47 -67 62 -58 62 -58 566 -58 461 1 463 1
507 23 55 28 100 82 112 133 13 58 11 895 -2 949 -14 54 -60 108 -114 134 -38
19 -66 20 -500 20 -367 0 -468 -2 -499 -14z"/>
</g>
</svg>
